<?xml version="1.0" encoding="UTF-8"?>
<svg xmlns="http://www.w3.org/2000/svg" width="1000" height="740" viewBox="0 0 1000 740" role="img" aria-labelledby="title desc">
  <title id="title">WeChat-AI growth for SMNETSTUDIO/WeChat-AI</title>
  <desc id="desc">Repository growth dashboard showing stars, forks over time.</desc>
  <defs>
    <linearGradient id="background" x1="0" y1="0" x2="1" y2="1">
      <stop offset="0" stop-color="#fafafa"/><stop offset="1" stop-color="#f4f4f5"/>
    </linearGradient>
    <linearGradient id="fill-stars" x1="0" y1="0" x2="0" y2="1"><stop offset="0" stop-color="#8b5cf6" stop-opacity=".24"/><stop offset="1" stop-color="#8b5cf6" stop-opacity="0"/></linearGradient><linearGradient id="fill-forks" x1="0" y1="0" x2="0" y2="1"><stop offset="0" stop-color="#06b6d4" stop-opacity=".24"/><stop offset="1" stop-color="#06b6d4" stop-opacity="0"/></linearGradient>
    <filter id="shadow" x="-10%" y="-10%" width="120%" height="130%"><feDropShadow dx="0" dy="8" stdDeviation="14" flood-color="#18181b" flood-opacity=".08"/></filter>
    <style>
      :root { color-scheme: light dark; }
      .bg { fill: url(#background); }
      .surface { fill: #ffffff; stroke: #e4e4e7; }
      .panel { fill: #ffffff; stroke: #e4e4e7; }
      .primary { fill: #18181b; }
      .secondary { fill: #71717a; }
      .grid { stroke: #e4e4e7; }
      text { font-family: Inter, ui-sans-serif, system-ui, -apple-system, BlinkMacSystemFont, "Segoe UI", sans-serif; }
      @media (prefers-color-scheme: dark) {
        .bg { fill: #09090b; }
        .surface, .panel { fill: #111113; stroke: #27272a; }
        .primary { fill: #fafafa; }
        .secondary { fill: #a1a1aa; }
        .grid { stroke: #27272a; }
      }
    </style>
  </defs>
  <rect class="bg" width="1000" height="740" rx="28"/>
  <g transform="translate(42 38)">
    <rect x="0" y="0" width="916" height="664" rx="22" class="surface" filter="url(#shadow)"/>
    <text x="30" y="45" class="primary" font-size="26" font-weight="750" letter-spacing="-.5">WeChat-AI growth</text>
    <text x="30" y="70" class="secondary" font-size="14">SMNETSTUDIO/WeChat-AI · Aug 10, 2026 – Sep 17, 2026</text>
    <g transform="translate(740 25)"><rect width="146" height="30" rx="15" fill="#8b5cf6" fill-opacity=".12"/><circle cx="17" cy="15" r="4" fill="#8b5cf6"/><text x="30" y="20" fill="#8b5cf6" font-size="11" font-weight="700" letter-spacing="1">LOCAL HISTORY</text></g>
    <g transform="translate(30 92)">
    <rect width="418" height="86" rx="16" class="panel"/>
    <rect x="16" y="17" width="6" height="52" rx="3" fill="#8b5cf6"/>
    <text x="38" y="34" class="secondary" font-size="12" font-weight="650" letter-spacing=".3">STARS</text>
    <text x="38" y="64" class="primary" font-size="27" font-weight="760" letter-spacing="-.5">1,911</text>
    <text x="392" y="63" text-anchor="end" fill="#8b5cf6" font-size="11" font-weight="650">+1,224 tracked</text>
  </g><g transform="translate(468 92)">
    <rect width="418" height="86" rx="16" class="panel"/>
    <rect x="16" y="17" width="6" height="52" rx="3" fill="#06b6d4"/>
    <text x="38" y="34" class="secondary" font-size="12" font-weight="650" letter-spacing=".3">FORKS</text>
    <text x="38" y="64" class="primary" font-size="27" font-weight="760" letter-spacing="-.5">1,280</text>
    <text x="392" y="63" text-anchor="end" fill="#06b6d4" font-size="11" font-weight="650">+777 tracked</text>
  </g>
    <g transform="translate(30 197)">
    <rect width="856" height="201" rx="16" class="panel"/>
    <circle cx="20" cy="27" r="5" fill="#8b5cf6"/>
    <text x="34" y="31" class="primary" font-size="14" font-weight="700">Stars</text>
    <text x="20" y="62" class="primary" font-size="20" font-weight="750">1,911</text>
    <text x="20" y="83" class="secondary" font-size="11">range 687–1,911</text>
    <line x1="220" x2="836" y1="20" y2="20" class="grid" stroke-width="1" stroke-dasharray="3 6"/><text x="210" y="24" text-anchor="end" class="secondary" font-size="9">1,911</text><line x1="220" x2="836" y1="95" y2="95" class="grid" stroke-width="1" stroke-dasharray="3 6"/><text x="210" y="99" text-anchor="end" class="secondary" font-size="9">1,299</text><line x1="220" x2="836" y1="170" y2="170" class="grid" stroke-width="1" stroke-dasharray="3 6"/><text x="210" y="174" text-anchor="end" class="secondary" font-size="9">687</text>
    <path d="M220 170 L236.2 81.2 L252.4 68.4 L268.6 48.3 L284.8 45 L301.1 41.8 L317.3 38.4 L333.5 37.3 L349.7 36.7 L365.9 35.2 L382.1 33 L398.3 31.8 L414.5 30.9 L430.7 30.2 L446.9 29.9 L463.2 29.2 L479.4 27.5 L495.6 26.7 L511.8 26.5 L528 26.4 L544.2 26.3 L560.4 25.9 L576.6 25.5 L592.8 25.4 L609.1 24.3 L625.3 24 L641.5 23.9 L657.7 23.8 L673.9 23.8 L690.1 23.3 L706.3 22.9 L722.5 22.6 L738.7 22.3 L754.9 22.3 L771.2 21.7 L787.4 21.7 L803.6 21.5 L819.8 20.1 L836 20 L836 170 L220 170 Z" fill="url(#fill-stars)"/>
    <path d="M220 170 L236.2 81.2 L252.4 68.4 L268.6 48.3 L284.8 45 L301.1 41.8 L317.3 38.4 L333.5 37.3 L349.7 36.7 L365.9 35.2 L382.1 33 L398.3 31.8 L414.5 30.9 L430.7 30.2 L446.9 29.9 L463.2 29.2 L479.4 27.5 L495.6 26.7 L511.8 26.5 L528 26.4 L544.2 26.3 L560.4 25.9 L576.6 25.5 L592.8 25.4 L609.1 24.3 L625.3 24 L641.5 23.9 L657.7 23.8 L673.9 23.8 L690.1 23.3 L706.3 22.9 L722.5 22.6 L738.7 22.3 L754.9 22.3 L771.2 21.7 L787.4 21.7 L803.6 21.5 L819.8 20.1 L836 20" fill="none" stroke="#8b5cf6" stroke-width="3" stroke-linecap="round" stroke-linejoin="round"/>
    <circle cx="836" cy="20" r="5" fill="#8b5cf6" stroke="#fff" stroke-width="2"/>
    <text x="220" y="194" text-anchor="start" class="secondary" font-size="9">Aug 10, 2026</text><text x="528" y="194" text-anchor="middle" class="secondary" font-size="9">Aug 29, 2026</text><text x="836" y="194" text-anchor="end" class="secondary" font-size="9">Sep 17, 2026</text>
  </g><g transform="translate(30 414)">
    <rect width="856" height="201" rx="16" class="panel"/>
    <circle cx="20" cy="27" r="5" fill="#06b6d4"/>
    <text x="34" y="31" class="primary" font-size="14" font-weight="700">Forks</text>
    <text x="20" y="62" class="primary" font-size="20" font-weight="750">1,280</text>
    <text x="20" y="83" class="secondary" font-size="11">range 503–1,283</text>
    <line x1="220" x2="836" y1="20" y2="20" class="grid" stroke-width="1" stroke-dasharray="3 6"/><text x="210" y="24" text-anchor="end" class="secondary" font-size="9">1,283</text><line x1="220" x2="836" y1="95" y2="95" class="grid" stroke-width="1" stroke-dasharray="3 6"/><text x="210" y="99" text-anchor="end" class="secondary" font-size="9">893</text><line x1="220" x2="836" y1="170" y2="170" class="grid" stroke-width="1" stroke-dasharray="3 6"/><text x="210" y="174" text-anchor="end" class="secondary" font-size="9">503</text>
    <path d="M220 170 L236.2 66.7 L252.4 51 L268.6 33.1 L284.8 31.2 L301.1 28.1 L317.3 25.2 L333.5 24.6 L349.7 23.7 L365.9 23.3 L382.1 22.3 L398.3 21.9 L414.5 21.5 L430.7 21 L446.9 21.2 L463.2 21.2 L479.4 20.6 L495.6 20.4 L511.8 20.2 L528 20.2 L544.2 20.4 L560.4 20.6 L576.6 20.8 L592.8 20.8 L609.1 20.2 L625.3 20.2 L641.5 20 L657.7 20 L673.9 20.2 L690.1 20.2 L706.3 20 L722.5 20.2 L738.7 20.4 L754.9 20.4 L771.2 20.2 L787.4 20.6 L803.6 20.6 L819.8 20.8 L836 20.6 L836 170 L220 170 Z" fill="url(#fill-forks)"/>
    <path d="M220 170 L236.2 66.7 L252.4 51 L268.6 33.1 L284.8 31.2 L301.1 28.1 L317.3 25.2 L333.5 24.6 L349.7 23.7 L365.9 23.3 L382.1 22.3 L398.3 21.9 L414.5 21.5 L430.7 21 L446.9 21.2 L463.2 21.2 L479.4 20.6 L495.6 20.4 L511.8 20.2 L528 20.2 L544.2 20.4 L560.4 20.6 L576.6 20.8 L592.8 20.8 L609.1 20.2 L625.3 20.2 L641.5 20 L657.7 20 L673.9 20.2 L690.1 20.2 L706.3 20 L722.5 20.2 L738.7 20.4 L754.9 20.4 L771.2 20.2 L787.4 20.6 L803.6 20.6 L819.8 20.8 L836 20.6" fill="none" stroke="#06b6d4" stroke-width="3" stroke-linecap="round" stroke-linejoin="round"/>
    <circle cx="836" cy="20.6" r="5" fill="#06b6d4" stroke="#fff" stroke-width="2"/>
    <text x="220" y="194" text-anchor="start" class="secondary" font-size="9">Aug 10, 2026</text><text x="528" y="194" text-anchor="middle" class="secondary" font-size="9">Aug 29, 2026</text><text x="836" y="194" text-anchor="end" class="secondary" font-size="9">Sep 17, 2026</text>
  </g>
    <text x="30" y="645" class="secondary" font-size="11">Updated Sep 17, 2026</text>
    <a href="https://github.com/MacRimi/repo-growth" target="_blank" aria-label="Open the Repo Growth project">
      <text x="886" y="645" fill="#8b5cf6" text-anchor="end" font-size="13" font-weight="700">Generated by Repo Growth ↗</text>
    </a>
  </g>
</svg>
