<?xml version="1.0" encoding="UTF-8"?>
<svg xmlns="http://www.w3.org/2000/svg" width="1000" height="740" viewBox="0 0 1000 740" role="img" aria-labelledby="title desc">
  <title id="title">WeChat-AI growth for SMNETSTUDIO/WeChat-AI</title>
  <desc id="desc">Repository growth dashboard showing stars, forks over time.</desc>
  <defs>
    <linearGradient id="background" x1="0" y1="0" x2="1" y2="1">
      <stop offset="0" stop-color="#fafafa"/><stop offset="1" stop-color="#f4f4f5"/>
    </linearGradient>
    <linearGradient id="fill-stars" x1="0" y1="0" x2="0" y2="1"><stop offset="0" stop-color="#8b5cf6" stop-opacity=".24"/><stop offset="1" stop-color="#8b5cf6" stop-opacity="0"/></linearGradient><linearGradient id="fill-forks" x1="0" y1="0" x2="0" y2="1"><stop offset="0" stop-color="#06b6d4" stop-opacity=".24"/><stop offset="1" stop-color="#06b6d4" stop-opacity="0"/></linearGradient>
    <filter id="shadow" x="-10%" y="-10%" width="120%" height="130%"><feDropShadow dx="0" dy="8" stdDeviation="14" flood-color="#18181b" flood-opacity=".08"/></filter>
    <style>
      :root { color-scheme: light dark; }
      .bg { fill: url(#background); }
      .surface { fill: #ffffff; stroke: #e4e4e7; }
      .panel { fill: #ffffff; stroke: #e4e4e7; }
      .primary { fill: #18181b; }
      .secondary { fill: #71717a; }
      .grid { stroke: #e4e4e7; }
      text { font-family: Inter, ui-sans-serif, system-ui, -apple-system, BlinkMacSystemFont, "Segoe UI", sans-serif; }
      @media (prefers-color-scheme: dark) {
        .bg { fill: #09090b; }
        .surface, .panel { fill: #111113; stroke: #27272a; }
        .primary { fill: #fafafa; }
        .secondary { fill: #a1a1aa; }
        .grid { stroke: #27272a; }
      }
    </style>
  </defs>
  <rect class="bg" width="1000" height="740" rx="28"/>
  <g transform="translate(42 38)">
    <rect x="0" y="0" width="916" height="664" rx="22" class="surface" filter="url(#shadow)"/>
    <text x="30" y="45" class="primary" font-size="26" font-weight="750" letter-spacing="-.5">WeChat-AI growth</text>
    <text x="30" y="70" class="secondary" font-size="14">SMNETSTUDIO/WeChat-AI · Aug 10, 2026 – Oct 7, 2026</text>
    <g transform="translate(740 25)"><rect width="146" height="30" rx="15" fill="#8b5cf6" fill-opacity=".12"/><circle cx="17" cy="15" r="4" fill="#8b5cf6"/><text x="30" y="20" fill="#8b5cf6" font-size="11" font-weight="700" letter-spacing="1">LOCAL HISTORY</text></g>
    <g transform="translate(30 92)">
    <rect width="418" height="86" rx="16" class="panel"/>
    <rect x="16" y="17" width="6" height="52" rx="3" fill="#8b5cf6"/>
    <text x="38" y="34" class="secondary" font-size="12" font-weight="650" letter-spacing=".3">STARS</text>
    <text x="38" y="64" class="primary" font-size="27" font-weight="760" letter-spacing="-.5">1,939</text>
    <text x="392" y="63" text-anchor="end" fill="#8b5cf6" font-size="11" font-weight="650">+1,252 tracked</text>
  </g><g transform="translate(468 92)">
    <rect width="418" height="86" rx="16" class="panel"/>
    <rect x="16" y="17" width="6" height="52" rx="3" fill="#06b6d4"/>
    <text x="38" y="34" class="secondary" font-size="12" font-weight="650" letter-spacing=".3">FORKS</text>
    <text x="38" y="64" class="primary" font-size="27" font-weight="760" letter-spacing="-.5">1,290</text>
    <text x="392" y="63" text-anchor="end" fill="#06b6d4" font-size="11" font-weight="650">+787 tracked</text>
  </g>
    <g transform="translate(30 197)">
    <rect width="856" height="201" rx="16" class="panel"/>
    <circle cx="20" cy="27" r="5" fill="#8b5cf6"/>
    <text x="34" y="31" class="primary" font-size="14" font-weight="700">Stars</text>
    <text x="20" y="62" class="primary" font-size="20" font-weight="750">1,939</text>
    <text x="20" y="83" class="secondary" font-size="11">range 687–1,939</text>
    <line x1="220" x2="836" y1="20" y2="20" class="grid" stroke-width="1" stroke-dasharray="3 6"/><text x="210" y="24" text-anchor="end" class="secondary" font-size="9">1,939</text><line x1="220" x2="836" y1="95" y2="95" class="grid" stroke-width="1" stroke-dasharray="3 6"/><text x="210" y="99" text-anchor="end" class="secondary" font-size="9">1,313</text><line x1="220" x2="836" y1="170" y2="170" class="grid" stroke-width="1" stroke-dasharray="3 6"/><text x="210" y="174" text-anchor="end" class="secondary" font-size="9">687</text>
    <path d="M220 170 L230.6 83.1 L241.2 70.7 L251.9 51 L262.5 47.8 L273.1 44.7 L283.7 41.3 L294.3 40.2 L305 39.6 L315.6 38.2 L326.2 36.1 L336.8 34.9 L347.4 34 L358.1 33.3 L368.7 33.1 L379.3 32.3 L389.9 30.7 L400.6 29.9 L411.2 29.7 L421.8 29.6 L432.4 29.5 L443 29.1 L453.7 28.7 L464.3 28.6 L474.9 27.5 L485.5 27.3 L496.1 27.2 L506.8 27.1 L517.4 27.1 L528 26.6 L538.6 26.2 L549.2 25.9 L559.9 25.6 L570.5 25.6 L581.1 25 L591.7 25 L602.3 24.8 L613 23.5 L623.6 23.4 L634.2 23.1 L644.8 23.1 L655.4 22.8 L666.1 22.6 L676.7 22.4 L687.3 21.3 L697.9 21.3 L708.6 21.3 L719.2 21.3 L729.8 21.1 L740.4 21.1 L751 20.7 L761.7 20.8 L772.3 20.7 L782.9 20.6 L793.5 20.4 L804.1 20.4 L814.8 20.4 L825.4 20.2 L836 20 L836 170 L220 170 Z" fill="url(#fill-stars)"/>
    <path d="M220 170 L230.6 83.1 L241.2 70.7 L251.9 51 L262.5 47.8 L273.1 44.7 L283.7 41.3 L294.3 40.2 L305 39.6 L315.6 38.2 L326.2 36.1 L336.8 34.9 L347.4 34 L358.1 33.3 L368.7 33.1 L379.3 32.3 L389.9 30.7 L400.6 29.9 L411.2 29.7 L421.8 29.6 L432.4 29.5 L443 29.1 L453.7 28.7 L464.3 28.6 L474.9 27.5 L485.5 27.3 L496.1 27.2 L506.8 27.1 L517.4 27.1 L528 26.6 L538.6 26.2 L549.2 25.9 L559.9 25.6 L570.5 25.6 L581.1 25 L591.7 25 L602.3 24.8 L613 23.5 L623.6 23.4 L634.2 23.1 L644.8 23.1 L655.4 22.8 L666.1 22.6 L676.7 22.4 L687.3 21.3 L697.9 21.3 L708.6 21.3 L719.2 21.3 L729.8 21.1 L740.4 21.1 L751 20.7 L761.7 20.8 L772.3 20.7 L782.9 20.6 L793.5 20.4 L804.1 20.4 L814.8 20.4 L825.4 20.2 L836 20" fill="none" stroke="#8b5cf6" stroke-width="3" stroke-linecap="round" stroke-linejoin="round"/>
    <circle cx="836" cy="20" r="5" fill="#8b5cf6" stroke="#fff" stroke-width="2"/>
    <text x="220" y="194" text-anchor="start" class="secondary" font-size="9">Aug 10, 2026</text><text x="528" y="194" text-anchor="middle" class="secondary" font-size="9">Sep 8, 2026</text><text x="836" y="194" text-anchor="end" class="secondary" font-size="9">Oct 7, 2026</text>
  </g><g transform="translate(30 414)">
    <rect width="856" height="201" rx="16" class="panel"/>
    <circle cx="20" cy="27" r="5" fill="#06b6d4"/>
    <text x="34" y="31" class="primary" font-size="14" font-weight="700">Forks</text>
    <text x="20" y="62" class="primary" font-size="20" font-weight="750">1,290</text>
    <text x="20" y="83" class="secondary" font-size="11">range 503–1,291</text>
    <line x1="220" x2="836" y1="20" y2="20" class="grid" stroke-width="1" stroke-dasharray="3 6"/><text x="210" y="24" text-anchor="end" class="secondary" font-size="9">1,291</text><line x1="220" x2="836" y1="95" y2="95" class="grid" stroke-width="1" stroke-dasharray="3 6"/><text x="210" y="99" text-anchor="end" class="secondary" font-size="9">897</text><line x1="220" x2="836" y1="170" y2="170" class="grid" stroke-width="1" stroke-dasharray="3 6"/><text x="210" y="174" text-anchor="end" class="secondary" font-size="9">503</text>
    <path d="M220 170 L230.6 67.8 L241.2 52.2 L251.9 34.5 L262.5 32.6 L273.1 29.5 L283.7 26.7 L294.3 26.1 L305 25.1 L315.6 24.8 L326.2 23.8 L336.8 23.4 L347.4 23 L358.1 22.5 L368.7 22.7 L379.3 22.7 L389.9 22.1 L400.6 21.9 L411.2 21.7 L421.8 21.7 L432.4 21.9 L443 22.1 L453.7 22.3 L464.3 22.3 L474.9 21.7 L485.5 21.7 L496.1 21.5 L506.8 21.5 L517.4 21.7 L528 21.7 L538.6 21.5 L549.2 21.7 L559.9 21.9 L570.5 21.9 L581.1 21.7 L591.7 22.1 L602.3 22.1 L613 22.3 L623.6 22.1 L634.2 21.7 L644.8 21.7 L655.4 21.9 L666.1 22.1 L676.7 21.7 L687.3 20.2 L697.9 20.4 L708.6 20.4 L719.2 20.6 L729.8 20.6 L740.4 20.6 L751 20.4 L761.7 20.2 L772.3 20.2 L782.9 20 L793.5 20 L804.1 20 L814.8 20.2 L825.4 20.2 L836 20.2 L836 170 L220 170 Z" fill="url(#fill-forks)"/>
    <path d="M220 170 L230.6 67.8 L241.2 52.2 L251.9 34.5 L262.5 32.6 L273.1 29.5 L283.7 26.7 L294.3 26.1 L305 25.1 L315.6 24.8 L326.2 23.8 L336.8 23.4 L347.4 23 L358.1 22.5 L368.7 22.7 L379.3 22.7 L389.9 22.1 L400.6 21.9 L411.2 21.7 L421.8 21.7 L432.4 21.9 L443 22.1 L453.7 22.3 L464.3 22.3 L474.9 21.7 L485.5 21.7 L496.1 21.5 L506.8 21.5 L517.4 21.7 L528 21.7 L538.6 21.5 L549.2 21.7 L559.9 21.9 L570.5 21.9 L581.1 21.7 L591.7 22.1 L602.3 22.1 L613 22.3 L623.6 22.1 L634.2 21.7 L644.8 21.7 L655.4 21.9 L666.1 22.1 L676.7 21.7 L687.3 20.2 L697.9 20.4 L708.6 20.4 L719.2 20.6 L729.8 20.6 L740.4 20.6 L751 20.4 L761.7 20.2 L772.3 20.2 L782.9 20 L793.5 20 L804.1 20 L814.8 20.2 L825.4 20.2 L836 20.2" fill="none" stroke="#06b6d4" stroke-width="3" stroke-linecap="round" stroke-linejoin="round"/>
    <circle cx="836" cy="20.2" r="5" fill="#06b6d4" stroke="#fff" stroke-width="2"/>
    <text x="220" y="194" text-anchor="start" class="secondary" font-size="9">Aug 10, 2026</text><text x="528" y="194" text-anchor="middle" class="secondary" font-size="9">Sep 8, 2026</text><text x="836" y="194" text-anchor="end" class="secondary" font-size="9">Oct 7, 2026</text>
  </g>
    <text x="30" y="645" class="secondary" font-size="11">Updated Oct 7, 2026</text>
    <a href="https://github.com/MacRimi/repo-growth" target="_blank" aria-label="Open the Repo Growth project">
      <text x="886" y="645" fill="#8b5cf6" text-anchor="end" font-size="13" font-weight="700">Generated by Repo Growth ↗</text>
    </a>
  </g>
</svg>
