<?xml version="1.0" encoding="UTF-8"?>
<svg xmlns="http://www.w3.org/2000/svg" width="1000" height="740" viewBox="0 0 1000 740" role="img" aria-labelledby="title desc">
  <title id="title">WeChat-AI growth for SMNETSTUDIO/WeChat-AI</title>
  <desc id="desc">Repository growth dashboard showing stars, forks over time.</desc>
  <defs>
    <linearGradient id="background" x1="0" y1="0" x2="1" y2="1">
      <stop offset="0" stop-color="#fafafa"/><stop offset="1" stop-color="#f4f4f5"/>
    </linearGradient>
    <linearGradient id="fill-stars" x1="0" y1="0" x2="0" y2="1"><stop offset="0" stop-color="#8b5cf6" stop-opacity=".24"/><stop offset="1" stop-color="#8b5cf6" stop-opacity="0"/></linearGradient><linearGradient id="fill-forks" x1="0" y1="0" x2="0" y2="1"><stop offset="0" stop-color="#06b6d4" stop-opacity=".24"/><stop offset="1" stop-color="#06b6d4" stop-opacity="0"/></linearGradient>
    <filter id="shadow" x="-10%" y="-10%" width="120%" height="130%"><feDropShadow dx="0" dy="8" stdDeviation="14" flood-color="#18181b" flood-opacity=".08"/></filter>
    <style>
      :root { color-scheme: light dark; }
      .bg { fill: url(#background); }
      .surface { fill: #ffffff; stroke: #e4e4e7; }
      .panel { fill: #ffffff; stroke: #e4e4e7; }
      .primary { fill: #18181b; }
      .secondary { fill: #71717a; }
      .grid { stroke: #e4e4e7; }
      text { font-family: Inter, ui-sans-serif, system-ui, -apple-system, BlinkMacSystemFont, "Segoe UI", sans-serif; }
      @media (prefers-color-scheme: dark) {
        .bg { fill: #09090b; }
        .surface, .panel { fill: #111113; stroke: #27272a; }
        .primary { fill: #fafafa; }
        .secondary { fill: #a1a1aa; }
        .grid { stroke: #27272a; }
      }
    </style>
  </defs>
  <rect class="bg" width="1000" height="740" rx="28"/>
  <g transform="translate(42 38)">
    <rect x="0" y="0" width="916" height="664" rx="22" class="surface" filter="url(#shadow)"/>
    <text x="30" y="45" class="primary" font-size="26" font-weight="750" letter-spacing="-.5">WeChat-AI growth</text>
    <text x="30" y="70" class="secondary" font-size="14">SMNETSTUDIO/WeChat-AI · Aug 10, 2026 – Sep 24, 2026</text>
    <g transform="translate(740 25)"><rect width="146" height="30" rx="15" fill="#8b5cf6" fill-opacity=".12"/><circle cx="17" cy="15" r="4" fill="#8b5cf6"/><text x="30" y="20" fill="#8b5cf6" font-size="11" font-weight="700" letter-spacing="1">LOCAL HISTORY</text></g>
    <g transform="translate(30 92)">
    <rect width="418" height="86" rx="16" class="panel"/>
    <rect x="16" y="17" width="6" height="52" rx="3" fill="#8b5cf6"/>
    <text x="38" y="34" class="secondary" font-size="12" font-weight="650" letter-spacing=".3">STARS</text>
    <text x="38" y="64" class="primary" font-size="27" font-weight="760" letter-spacing="-.5">1,928</text>
    <text x="392" y="63" text-anchor="end" fill="#8b5cf6" font-size="11" font-weight="650">+1,241 tracked</text>
  </g><g transform="translate(468 92)">
    <rect width="418" height="86" rx="16" class="panel"/>
    <rect x="16" y="17" width="6" height="52" rx="3" fill="#06b6d4"/>
    <text x="38" y="34" class="secondary" font-size="12" font-weight="650" letter-spacing=".3">FORKS</text>
    <text x="38" y="64" class="primary" font-size="27" font-weight="760" letter-spacing="-.5">1,289</text>
    <text x="392" y="63" text-anchor="end" fill="#06b6d4" font-size="11" font-weight="650">+786 tracked</text>
  </g>
    <g transform="translate(30 197)">
    <rect width="856" height="201" rx="16" class="panel"/>
    <circle cx="20" cy="27" r="5" fill="#8b5cf6"/>
    <text x="34" y="31" class="primary" font-size="14" font-weight="700">Stars</text>
    <text x="20" y="62" class="primary" font-size="20" font-weight="750">1,928</text>
    <text x="20" y="83" class="secondary" font-size="11">range 687–1,928</text>
    <line x1="220" x2="836" y1="20" y2="20" class="grid" stroke-width="1" stroke-dasharray="3 6"/><text x="210" y="24" text-anchor="end" class="secondary" font-size="9">1,928</text><line x1="220" x2="836" y1="95" y2="95" class="grid" stroke-width="1" stroke-dasharray="3 6"/><text x="210" y="99" text-anchor="end" class="secondary" font-size="9">1,308</text><line x1="220" x2="836" y1="170" y2="170" class="grid" stroke-width="1" stroke-dasharray="3 6"/><text x="210" y="174" text-anchor="end" class="secondary" font-size="9">687</text>
    <path d="M220 170 L233.7 82.4 L247.4 69.8 L261.1 50 L274.8 46.7 L288.4 43.6 L302.1 40.2 L315.8 39.1 L329.5 38.5 L343.2 37 L356.9 34.9 L370.6 33.7 L384.3 32.8 L398 32.1 L411.6 31.8 L425.3 31.1 L439 29.4 L452.7 28.7 L466.4 28.5 L480.1 28.3 L493.8 28.2 L507.5 27.9 L521.2 27.5 L534.8 27.4 L548.5 26.3 L562.2 26 L575.9 25.9 L589.6 25.8 L603.3 25.8 L617 25.3 L630.7 25 L644.4 24.6 L658 24.4 L671.7 24.4 L685.4 23.7 L699.1 23.7 L712.8 23.5 L726.5 22.2 L740.2 22.1 L753.9 21.8 L767.6 21.8 L781.2 21.5 L794.9 21.3 L808.6 21.1 L822.3 20 L836 20 L836 170 L220 170 Z" fill="url(#fill-stars)"/>
    <path d="M220 170 L233.7 82.4 L247.4 69.8 L261.1 50 L274.8 46.7 L288.4 43.6 L302.1 40.2 L315.8 39.1 L329.5 38.5 L343.2 37 L356.9 34.9 L370.6 33.7 L384.3 32.8 L398 32.1 L411.6 31.8 L425.3 31.1 L439 29.4 L452.7 28.7 L466.4 28.5 L480.1 28.3 L493.8 28.2 L507.5 27.9 L521.2 27.5 L534.8 27.4 L548.5 26.3 L562.2 26 L575.9 25.9 L589.6 25.8 L603.3 25.8 L617 25.3 L630.7 25 L644.4 24.6 L658 24.4 L671.7 24.4 L685.4 23.7 L699.1 23.7 L712.8 23.5 L726.5 22.2 L740.2 22.1 L753.9 21.8 L767.6 21.8 L781.2 21.5 L794.9 21.3 L808.6 21.1 L822.3 20 L836 20" fill="none" stroke="#8b5cf6" stroke-width="3" stroke-linecap="round" stroke-linejoin="round"/>
    <circle cx="836" cy="20" r="5" fill="#8b5cf6" stroke="#fff" stroke-width="2"/>
    <text x="220" y="194" text-anchor="start" class="secondary" font-size="9">Aug 10, 2026</text><text x="528" y="194" text-anchor="middle" class="secondary" font-size="9">Sep 1, 2026</text><text x="836" y="194" text-anchor="end" class="secondary" font-size="9">Sep 24, 2026</text>
  </g><g transform="translate(30 414)">
    <rect width="856" height="201" rx="16" class="panel"/>
    <circle cx="20" cy="27" r="5" fill="#06b6d4"/>
    <text x="34" y="31" class="primary" font-size="14" font-weight="700">Forks</text>
    <text x="20" y="62" class="primary" font-size="20" font-weight="750">1,289</text>
    <text x="20" y="83" class="secondary" font-size="11">range 503–1,290</text>
    <line x1="220" x2="836" y1="20" y2="20" class="grid" stroke-width="1" stroke-dasharray="3 6"/><text x="210" y="24" text-anchor="end" class="secondary" font-size="9">1,290</text><line x1="220" x2="836" y1="95" y2="95" class="grid" stroke-width="1" stroke-dasharray="3 6"/><text x="210" y="99" text-anchor="end" class="secondary" font-size="9">897</text><line x1="220" x2="836" y1="170" y2="170" class="grid" stroke-width="1" stroke-dasharray="3 6"/><text x="210" y="174" text-anchor="end" class="secondary" font-size="9">503</text>
    <path d="M220 170 L233.7 67.6 L247.4 52 L261.1 34.3 L274.8 32.4 L288.4 29.3 L302.1 26.5 L315.8 25.9 L329.5 25 L343.2 24.6 L356.9 23.6 L370.6 23.2 L384.3 22.9 L398 22.3 L411.6 22.5 L425.3 22.5 L439 21.9 L452.7 21.7 L466.4 21.5 L480.1 21.5 L493.8 21.7 L507.5 21.9 L521.2 22.1 L534.8 22.1 L548.5 21.5 L562.2 21.5 L575.9 21.3 L589.6 21.3 L603.3 21.5 L617 21.5 L630.7 21.3 L644.4 21.5 L658 21.7 L671.7 21.7 L685.4 21.5 L699.1 21.9 L712.8 21.9 L726.5 22.1 L740.2 21.9 L753.9 21.5 L767.6 21.5 L781.2 21.7 L794.9 21.9 L808.6 21.5 L822.3 20 L836 20.2 L836 170 L220 170 Z" fill="url(#fill-forks)"/>
    <path d="M220 170 L233.7 67.6 L247.4 52 L261.1 34.3 L274.8 32.4 L288.4 29.3 L302.1 26.5 L315.8 25.9 L329.5 25 L343.2 24.6 L356.9 23.6 L370.6 23.2 L384.3 22.9 L398 22.3 L411.6 22.5 L425.3 22.5 L439 21.9 L452.7 21.7 L466.4 21.5 L480.1 21.5 L493.8 21.7 L507.5 21.9 L521.2 22.1 L534.8 22.1 L548.5 21.5 L562.2 21.5 L575.9 21.3 L589.6 21.3 L603.3 21.5 L617 21.5 L630.7 21.3 L644.4 21.5 L658 21.7 L671.7 21.7 L685.4 21.5 L699.1 21.9 L712.8 21.9 L726.5 22.1 L740.2 21.9 L753.9 21.5 L767.6 21.5 L781.2 21.7 L794.9 21.9 L808.6 21.5 L822.3 20 L836 20.2" fill="none" stroke="#06b6d4" stroke-width="3" stroke-linecap="round" stroke-linejoin="round"/>
    <circle cx="836" cy="20.2" r="5" fill="#06b6d4" stroke="#fff" stroke-width="2"/>
    <text x="220" y="194" text-anchor="start" class="secondary" font-size="9">Aug 10, 2026</text><text x="528" y="194" text-anchor="middle" class="secondary" font-size="9">Sep 1, 2026</text><text x="836" y="194" text-anchor="end" class="secondary" font-size="9">Sep 24, 2026</text>
  </g>
    <text x="30" y="645" class="secondary" font-size="11">Updated Sep 24, 2026</text>
    <a href="https://github.com/MacRimi/repo-growth" target="_blank" aria-label="Open the Repo Growth project">
      <text x="886" y="645" fill="#8b5cf6" text-anchor="end" font-size="13" font-weight="700">Generated by Repo Growth ↗</text>
    </a>
  </g>
</svg>
