<?xml version="1.0" encoding="UTF-8"?>
<svg xmlns="http://www.w3.org/2000/svg" width="1000" height="740" viewBox="0 0 1000 740" role="img" aria-labelledby="title desc">
  <title id="title">WeChat-AI growth for SMNETSTUDIO/WeChat-AI</title>
  <desc id="desc">Repository growth dashboard showing stars, forks over time.</desc>
  <defs>
    <linearGradient id="background" x1="0" y1="0" x2="1" y2="1">
      <stop offset="0" stop-color="#fafafa"/><stop offset="1" stop-color="#f4f4f5"/>
    </linearGradient>
    <linearGradient id="fill-stars" x1="0" y1="0" x2="0" y2="1"><stop offset="0" stop-color="#8b5cf6" stop-opacity=".24"/><stop offset="1" stop-color="#8b5cf6" stop-opacity="0"/></linearGradient><linearGradient id="fill-forks" x1="0" y1="0" x2="0" y2="1"><stop offset="0" stop-color="#06b6d4" stop-opacity=".24"/><stop offset="1" stop-color="#06b6d4" stop-opacity="0"/></linearGradient>
    <filter id="shadow" x="-10%" y="-10%" width="120%" height="130%"><feDropShadow dx="0" dy="8" stdDeviation="14" flood-color="#18181b" flood-opacity=".08"/></filter>
    <style>
      :root { color-scheme: light dark; }
      .bg { fill: url(#background); }
      .surface { fill: #ffffff; stroke: #e4e4e7; }
      .panel { fill: #ffffff; stroke: #e4e4e7; }
      .primary { fill: #18181b; }
      .secondary { fill: #71717a; }
      .grid { stroke: #e4e4e7; }
      text { font-family: Inter, ui-sans-serif, system-ui, -apple-system, BlinkMacSystemFont, "Segoe UI", sans-serif; }
      @media (prefers-color-scheme: dark) {
        .bg { fill: #09090b; }
        .surface, .panel { fill: #111113; stroke: #27272a; }
        .primary { fill: #fafafa; }
        .secondary { fill: #a1a1aa; }
        .grid { stroke: #27272a; }
      }
    </style>
  </defs>
  <rect class="bg" width="1000" height="740" rx="28"/>
  <g transform="translate(42 38)">
    <rect x="0" y="0" width="916" height="664" rx="22" class="surface" filter="url(#shadow)"/>
    <text x="30" y="45" class="primary" font-size="26" font-weight="750" letter-spacing="-.5">WeChat-AI growth</text>
    <text x="30" y="70" class="secondary" font-size="14">SMNETSTUDIO/WeChat-AI · Aug 10, 2026 – Sep 29, 2026</text>
    <g transform="translate(740 25)"><rect width="146" height="30" rx="15" fill="#8b5cf6" fill-opacity=".12"/><circle cx="17" cy="15" r="4" fill="#8b5cf6"/><text x="30" y="20" fill="#8b5cf6" font-size="11" font-weight="700" letter-spacing="1">LOCAL HISTORY</text></g>
    <g transform="translate(30 92)">
    <rect width="418" height="86" rx="16" class="panel"/>
    <rect x="16" y="17" width="6" height="52" rx="3" fill="#8b5cf6"/>
    <text x="38" y="34" class="secondary" font-size="12" font-weight="650" letter-spacing=".3">STARS</text>
    <text x="38" y="64" class="primary" font-size="27" font-weight="760" letter-spacing="-.5">1,933</text>
    <text x="392" y="63" text-anchor="end" fill="#8b5cf6" font-size="11" font-weight="650">+1,246 tracked</text>
  </g><g transform="translate(468 92)">
    <rect width="418" height="86" rx="16" class="panel"/>
    <rect x="16" y="17" width="6" height="52" rx="3" fill="#06b6d4"/>
    <text x="38" y="34" class="secondary" font-size="12" font-weight="650" letter-spacing=".3">FORKS</text>
    <text x="38" y="64" class="primary" font-size="27" font-weight="760" letter-spacing="-.5">1,289</text>
    <text x="392" y="63" text-anchor="end" fill="#06b6d4" font-size="11" font-weight="650">+786 tracked</text>
  </g>
    <g transform="translate(30 197)">
    <rect width="856" height="201" rx="16" class="panel"/>
    <circle cx="20" cy="27" r="5" fill="#8b5cf6"/>
    <text x="34" y="31" class="primary" font-size="14" font-weight="700">Stars</text>
    <text x="20" y="62" class="primary" font-size="20" font-weight="750">1,933</text>
    <text x="20" y="83" class="secondary" font-size="11">range 687–1,933</text>
    <line x1="220" x2="836" y1="20" y2="20" class="grid" stroke-width="1" stroke-dasharray="3 6"/><text x="210" y="24" text-anchor="end" class="secondary" font-size="9">1,933</text><line x1="220" x2="836" y1="95" y2="95" class="grid" stroke-width="1" stroke-dasharray="3 6"/><text x="210" y="99" text-anchor="end" class="secondary" font-size="9">1,310</text><line x1="220" x2="836" y1="170" y2="170" class="grid" stroke-width="1" stroke-dasharray="3 6"/><text x="210" y="174" text-anchor="end" class="secondary" font-size="9">687</text>
    <path d="M220 170 L232.3 82.7 L244.6 70.2 L257 50.5 L269.3 47.2 L281.6 44.1 L293.9 40.7 L306.2 39.6 L318.6 39 L330.9 37.6 L343.2 35.4 L355.5 34.2 L367.8 33.4 L380.2 32.6 L392.5 32.4 L404.8 31.7 L417.1 30 L429.4 29.3 L441.8 29 L454.1 28.9 L466.4 28.8 L478.7 28.4 L491 28.1 L503.4 27.9 L515.7 26.9 L528 26.6 L540.3 26.5 L552.6 26.4 L565 26.4 L577.3 25.9 L589.6 25.5 L601.9 25.2 L614.2 24.9 L626.6 24.9 L638.9 24.3 L651.2 24.3 L663.5 24.1 L675.8 22.8 L688.2 22.6 L700.5 22.4 L712.8 22.4 L725.1 22 L737.4 21.9 L749.8 21.7 L762.1 20.6 L774.4 20.6 L786.7 20.6 L799 20.6 L811.4 20.4 L823.7 20.4 L836 20 L836 170 L220 170 Z" fill="url(#fill-stars)"/>
    <path d="M220 170 L232.3 82.7 L244.6 70.2 L257 50.5 L269.3 47.2 L281.6 44.1 L293.9 40.7 L306.2 39.6 L318.6 39 L330.9 37.6 L343.2 35.4 L355.5 34.2 L367.8 33.4 L380.2 32.6 L392.5 32.4 L404.8 31.7 L417.1 30 L429.4 29.3 L441.8 29 L454.1 28.9 L466.4 28.8 L478.7 28.4 L491 28.1 L503.4 27.9 L515.7 26.9 L528 26.6 L540.3 26.5 L552.6 26.4 L565 26.4 L577.3 25.9 L589.6 25.5 L601.9 25.2 L614.2 24.9 L626.6 24.9 L638.9 24.3 L651.2 24.3 L663.5 24.1 L675.8 22.8 L688.2 22.6 L700.5 22.4 L712.8 22.4 L725.1 22 L737.4 21.9 L749.8 21.7 L762.1 20.6 L774.4 20.6 L786.7 20.6 L799 20.6 L811.4 20.4 L823.7 20.4 L836 20" fill="none" stroke="#8b5cf6" stroke-width="3" stroke-linecap="round" stroke-linejoin="round"/>
    <circle cx="836" cy="20" r="5" fill="#8b5cf6" stroke="#fff" stroke-width="2"/>
    <text x="220" y="194" text-anchor="start" class="secondary" font-size="9">Aug 10, 2026</text><text x="528" y="194" text-anchor="middle" class="secondary" font-size="9">Sep 4, 2026</text><text x="836" y="194" text-anchor="end" class="secondary" font-size="9">Sep 29, 2026</text>
  </g><g transform="translate(30 414)">
    <rect width="856" height="201" rx="16" class="panel"/>
    <circle cx="20" cy="27" r="5" fill="#06b6d4"/>
    <text x="34" y="31" class="primary" font-size="14" font-weight="700">Forks</text>
    <text x="20" y="62" class="primary" font-size="20" font-weight="750">1,289</text>
    <text x="20" y="83" class="secondary" font-size="11">range 503–1,290</text>
    <line x1="220" x2="836" y1="20" y2="20" class="grid" stroke-width="1" stroke-dasharray="3 6"/><text x="210" y="24" text-anchor="end" class="secondary" font-size="9">1,290</text><line x1="220" x2="836" y1="95" y2="95" class="grid" stroke-width="1" stroke-dasharray="3 6"/><text x="210" y="99" text-anchor="end" class="secondary" font-size="9">897</text><line x1="220" x2="836" y1="170" y2="170" class="grid" stroke-width="1" stroke-dasharray="3 6"/><text x="210" y="174" text-anchor="end" class="secondary" font-size="9">503</text>
    <path d="M220 170 L232.3 67.6 L244.6 52 L257 34.3 L269.3 32.4 L281.6 29.3 L293.9 26.5 L306.2 25.9 L318.6 25 L330.9 24.6 L343.2 23.6 L355.5 23.2 L367.8 22.9 L380.2 22.3 L392.5 22.5 L404.8 22.5 L417.1 21.9 L429.4 21.7 L441.8 21.5 L454.1 21.5 L466.4 21.7 L478.7 21.9 L491 22.1 L503.4 22.1 L515.7 21.5 L528 21.5 L540.3 21.3 L552.6 21.3 L565 21.5 L577.3 21.5 L589.6 21.3 L601.9 21.5 L614.2 21.7 L626.6 21.7 L638.9 21.5 L651.2 21.9 L663.5 21.9 L675.8 22.1 L688.2 21.9 L700.5 21.5 L712.8 21.5 L725.1 21.7 L737.4 21.9 L749.8 21.5 L762.1 20 L774.4 20.2 L786.7 20.2 L799 20.4 L811.4 20.4 L823.7 20.4 L836 20.2 L836 170 L220 170 Z" fill="url(#fill-forks)"/>
    <path d="M220 170 L232.3 67.6 L244.6 52 L257 34.3 L269.3 32.4 L281.6 29.3 L293.9 26.5 L306.2 25.9 L318.6 25 L330.9 24.6 L343.2 23.6 L355.5 23.2 L367.8 22.9 L380.2 22.3 L392.5 22.5 L404.8 22.5 L417.1 21.9 L429.4 21.7 L441.8 21.5 L454.1 21.5 L466.4 21.7 L478.7 21.9 L491 22.1 L503.4 22.1 L515.7 21.5 L528 21.5 L540.3 21.3 L552.6 21.3 L565 21.5 L577.3 21.5 L589.6 21.3 L601.9 21.5 L614.2 21.7 L626.6 21.7 L638.9 21.5 L651.2 21.9 L663.5 21.9 L675.8 22.1 L688.2 21.9 L700.5 21.5 L712.8 21.5 L725.1 21.7 L737.4 21.9 L749.8 21.5 L762.1 20 L774.4 20.2 L786.7 20.2 L799 20.4 L811.4 20.4 L823.7 20.4 L836 20.2" fill="none" stroke="#06b6d4" stroke-width="3" stroke-linecap="round" stroke-linejoin="round"/>
    <circle cx="836" cy="20.2" r="5" fill="#06b6d4" stroke="#fff" stroke-width="2"/>
    <text x="220" y="194" text-anchor="start" class="secondary" font-size="9">Aug 10, 2026</text><text x="528" y="194" text-anchor="middle" class="secondary" font-size="9">Sep 4, 2026</text><text x="836" y="194" text-anchor="end" class="secondary" font-size="9">Sep 29, 2026</text>
  </g>
    <text x="30" y="645" class="secondary" font-size="11">Updated Sep 29, 2026</text>
    <a href="https://github.com/MacRimi/repo-growth" target="_blank" aria-label="Open the Repo Growth project">
      <text x="886" y="645" fill="#8b5cf6" text-anchor="end" font-size="13" font-weight="700">Generated by Repo Growth ↗</text>
    </a>
  </g>
</svg>
